/* XPM */
static char * urxtv_bg_xpm[] = {
"30 30 43 1",
" 	c #212121",
".	c #222122",
"+	c #212221",
"@	c #222121",
"#	c #222221",
"$	c #222222",
"%	c #212122",
"&	c #212222",
"*	c #232222",
"=	c #232223",
"-	c #222322",
";	c #222223",
">	c #222323",
",	c #232323",
"'	c #232322",
")	c #232324",
"!	c #232423",
"~	c #242323",
"{	c #242324",
"]	c #232424",
"^	c #242423",
"/	c #242424",
"(	c #242524",
"_	c #252525",
":	c #252524",
"<	c #252424",
"[	c #252425",
"}	c #242425",
"|	c #242525",
"1	c #252526",
"2	c #252625",
"3	c #262525",
"4	c #262626",
"5	c #252626",
"6	c #262526",
"7	c #262625",
"8	c #262627",
"9	c #272626",
"0	c #262727",
"a	c #272726",
"b	c #262726",
"c	c #272727",
"d	c #272627",
"                              ",
".+@.#@@#$%  # @ %+.+&&++ @  . ",
"$$$$.$$$$$&$$$$$$#$..$$$$$$$$$",
"*=-;>>=>,,*',;=,->,,,$=$,**>=,",
")!~!,,,,!{))],,!~!,~,,^,{~,,,,",
"{)//]{^/^////]//]/^{////{]////",
"/(_:<[(<<[[<(<(}}//}[<[[|</[(:",
"1_1__2_________2_____1______3_",
"445444444446625467746454656544",
"89990a440984abba408b498c4c0884",
"cccccccccccccccccccccccccccccc",
"b98c444880b0bdb98c898a9b909449",
"474422372544754337644475746653",
"2_2_1_1______2_____________1__",
"//|__((}<(/[<}(/</_(<|[/([/[[(",
"{~/]/{///{/////^{/^/{!/]/{]!^{",
"),~),,^){,~!))~,,,~))!)),,),,,",
"=>>,*'>=$$==>'=';'>>,>$,-,';*>",
"$$.$$$$$$$$$$$$$$$$$$$$$#$$$$$",
"%@ ..@. # +&% +  @%&& @.#&#%  ",
"                              ",
"                              ",
"                              ",
"                              ",
"                              ",
"                              ",
"                              ",
"                              ",
"                              ",
"                              "};
