/* XPM */
static char * urxtv_bg_xpm[] = {
"30 30 28 1",
" 	c None",
".	c #272627",
"+	c #262626",
"@	c #262526",
"#	c #252525",
"$	c #242424",
"%	c #232324",
"&	c #232323",
"*	c #232222",
"=	c #222222",
"-	c #262525",
";	c #252524",
">	c #242425",
",	c #242423",
"'	c #252425",
")	c #262625",
"!	c #252424",
"~	c #242525",
"{	c #242524",
"]	c #252625",
"^	c #242324",
"/	c #232424",
"(	c #252626",
"_	c #242323",
":	c #252526",
"<	c #222322",
"[	c #222323",
"}	c #222223",
".++++++@#######$$$$$$$%&&&&&*=",
"$++++++-######;>$$$$$$,&&&&&='",
"$$+++++)-######!$$$$$$$&&&&&~$",
"$$$++++@######;!$$$$$$$&&&&##{",
"$$$$+++]#######'$$$$$$,&&&###'",
"$$$$$+++#######>$$$$$$,&&####$",
"$$$$$$+########$$$$$$$$&#####;",
"$$$$$$%)#######$$$$$$$^######$",
"$$$$$$$&#######'$$$$$$-######!",
"$$$$$$/&&######{$$$$$+######'$",
"$$$$$$$&&&#####$$$$$++#######~",
"$$$$$$/&&&&####$$$$++(######;!",
"$$$$$$$&&&&&##'>$$++++]######$",
"$$$$$$_&&&&&=##!$++++:######~!",
"{$$$$$$/&&&&&=#$++++++@######;",
"$$$$$$$,&&&&&<=++++++++#######",
"$$$$$$$,&&&&[<>$++++++]######'",
"$$$$$$$%&&&&&#>$$+++++::######",
"#$$$$$$$&&&&##$$$$++++@#######",
"{$$$$$$/&&&###!$$$$+++@#######",
"#$$$$$$^&&####$$$$$$++]#######",
"{$$$$$$/&#####{$$$$$$+)#######",
"$$$$$$$$######~$$$$$$/)#######",
"$$$$$$$#######~$$$$$$&&#######",
"#$$$$$(#######>$$$$$$,&&#####'",
"!$$$$+(#######'$$$$$$$&&&####>",
"{$$$++)#######{$$$$$$_&&&&####",
">$$++++-######{$$$$$$^&&&&&###",
"$$++++)#######!$$$$$$,&&&&&=##",
"$++++++(######{$$$$$$$%&&&&[}~"};
